<svg width="56" height="56" viewBox="0 0 56 56" fill="none" xmlns="http://www.w3.org/2000/svg">
<path d="M0 28C0 12.536 12.536 0 28 0C43.464 0 56 12.536 56 28C56 43.464 43.464 56 28 56C12.536 56 0 43.464 0 28Z" fill="#F3BA2F"/>
<path d="M18.4282 15.0517L28.2884 9.33333L38.1484 15.0517L34.5233 17.1642L28.2884 13.5584L22.0533 17.1642L18.4282 15.0517ZM38.1484 22.2634L34.5233 20.1509L28.2884 23.7567L22.0533 20.1509L18.4282 22.2634V26.4884L24.6634 30.0943V37.306L28.2884 39.4185L31.9132 37.306V30.0943L38.1484 26.4884V22.2634ZM38.1484 33.7001V29.4751L34.5233 31.5876V35.8127L38.1484 33.7001ZM40.7221 35.1935L34.4871 38.7994V43.0244L44.3471 37.306V25.8692L40.7221 27.9817V35.1935ZM37.0971 18.6575L40.7221 20.7701V24.9951L44.3471 22.8826V18.6575L40.7221 16.545L37.0971 18.6575ZM24.6634 40.3291V44.5541L28.2884 46.6667L31.9132 44.5541V40.3291L28.2884 42.4416L24.6634 40.3291ZM18.4282 33.7001L22.0533 35.8127V31.5876L18.4282 29.4751V33.7001ZM24.6634 18.6575L28.2884 20.7701L31.9132 18.6575L28.2884 16.545L24.6634 18.6575ZM15.8545 20.7701L19.4795 18.6575L15.8545 16.545L12.2295 18.6575V22.8826L15.8545 24.9951V20.7701ZM15.8545 27.9817L12.2295 25.8692V37.306L22.0895 43.0244V38.7994L15.8545 35.1935V27.9817Z" fill="white"/>
</svg>
