<svg width="100" height="33" viewBox="0 0 100 33" fill="none" xmlns="http://www.w3.org/2000/svg">
<path d="M15.8798 23.9966C15.8951 23.9876 15.9045 23.9711 15.9044 23.9534L15.8843 17.1087L17.881 16.0589L17.9635 25.1284L10.0906 29.6033L10.0845 27.4072L15.8798 23.9966Z" fill="white" stroke="white" stroke-width="0.1" stroke-miterlimit="10" stroke-linecap="round" stroke-linejoin="round"/>
<path d="M17.9793 15.9776C17.9791 15.9592 17.9689 15.9424 17.9527 15.9338L11.8426 12.7014L14.1205 11.4117L19.9176 15.0419L19.9494 26.0024L18.0625 25.1268L17.9793 15.9776Z" fill="white" stroke="white" stroke-width="0.1" stroke-miterlimit="10" stroke-linecap="round" stroke-linejoin="round"/>
<path d="M10.0114 2.45104L10.0018 0.0862005L19.8915 5.71654L19.8985 7.97072L10.0114 2.45104Z" fill="white" stroke="white" stroke-width="0.1" stroke-miterlimit="10" stroke-linecap="round" stroke-linejoin="round"/>
<path d="M1.84426 6.96403C1.82851 6.97284 1.81873 6.98945 1.81867 7.00749L1.78756 15.9986L0.0839085 17.2571L0.0503286 5.83066L9.90117 0.086827L9.91079 2.45121L1.84426 6.96403Z" fill="white" stroke="white" stroke-width="0.1" stroke-miterlimit="10" stroke-linecap="round" stroke-linejoin="round"/>
<path d="M10.0647 29.735L18.0152 25.216L19.8925 26.0872L9.98991 31.9442L0.160124 26.3675L8.00047 21.7696C8.01599 21.7605 8.02542 21.7437 8.02517 21.7258C8.02493 21.7078 8.01504 21.6913 7.99928 21.6826L5.91978 20.5388L5.91978 20.5388L0.125956 17.3513L1.84021 16.085L11.7796 21.7635L5.88606 25.0879L5.8858 25.0881L3.88548 26.2009C3.86966 26.2097 3.85983 26.2263 3.85979 26.2444C3.85975 26.2626 3.8695 26.2793 3.88528 26.2881L10.0155 29.7351C10.0308 29.7437 10.0495 29.7437 10.0647 29.735Z" fill="white" stroke="white" stroke-width="0.1" stroke-miterlimit="10" stroke-linecap="round" stroke-linejoin="round"/>
<path d="M9.96165 2.5397L19.8469 8.0583L14.0987 11.3115L14.0987 11.3115L11.7155 12.6608C11.6996 12.6698 11.6899 12.6868 11.6901 12.705C11.6904 12.7233 11.7006 12.74 11.7167 12.7485L17.8237 15.9793L15.8357 17.0246L7.98881 12.5944L15.8335 7.99657C15.8489 7.98755 15.8584 7.971 15.8583 7.95315C15.8582 7.9353 15.8485 7.91886 15.833 7.91001L13.9435 6.83163L9.99283 4.57667C9.97745 4.56789 9.95858 4.5679 9.94321 4.5767L4.08269 7.93114L1.98127 7.00433L9.96165 2.5397Z" fill="white" stroke="white" stroke-width="0.1" stroke-miterlimit="10" stroke-linecap="round" stroke-linejoin="round"/>
<path d="M9.98426 27.4101L9.99037 29.6052L4.01283 26.244L5.91121 25.1879L9.98426 27.4101Z" fill="white" stroke="white" stroke-width="0.1" stroke-miterlimit="10" stroke-linecap="round" stroke-linejoin="round"/>
<path d="M5.89628 20.6393L7.87423 21.7273L0.110063 26.2805L0.103065 23.9145L5.89628 20.6393Z" fill="white" stroke="white" stroke-width="0.1" stroke-miterlimit="10" stroke-linecap="round" stroke-linejoin="round"/>
<path d="M13.9179 6.93242L15.7078 7.95396L7.93883 12.5074L7.9615 10.2597L13.9179 6.93242Z" fill="white" stroke="white" stroke-width="0.1" stroke-miterlimit="10" stroke-linecap="round" stroke-linejoin="round"/>
<path d="M4.05478 15.0565C4.05483 15.0746 4.06473 15.0913 4.08064 15.1001L11.8241 19.3703L11.8311 21.6722L1.88726 15.9912L1.9181 7.08049L4.03469 8.014L4.05478 15.0565Z" fill="white" stroke="white" stroke-width="0.1" stroke-miterlimit="10" stroke-linecap="round" stroke-linejoin="round"/>
<path d="M34.9357 25.289C33.5757 25.289 32.4157 25.033 31.4557 24.521C30.4957 23.993 29.6797 23.273 29.0077 22.361L30.4957 21.113C31.0877 21.897 31.7437 22.497 32.4637 22.913C33.1837 23.313 34.0317 23.513 35.0077 23.513C36.2077 23.513 37.1197 23.225 37.7437 22.649C38.3837 22.073 38.7037 21.305 38.7037 20.345C38.7037 19.545 38.4637 18.929 37.9837 18.497C37.5037 18.065 36.7117 17.721 35.6077 17.465L34.2397 17.153C32.7037 16.801 31.5277 16.273 30.7117 15.569C29.9117 14.849 29.5117 13.841 29.5117 12.545C29.5117 11.809 29.6477 11.153 29.9197 10.577C30.1917 10.001 30.5677 9.52098 31.0477 9.13698C31.5437 8.75298 32.1277 8.46498 32.7997 8.27298C33.4877 8.06498 34.2397 7.96098 35.0557 7.96098C36.3197 7.96098 37.3997 8.19298 38.2957 8.65698C39.2077 9.12098 39.9757 9.80098 40.5997 10.697L39.0877 11.801C38.6237 11.161 38.0637 10.657 37.4077 10.289C36.7517 9.92098 35.9357 9.73698 34.9597 9.73698C33.8877 9.73698 33.0397 9.96898 32.4157 10.433C31.8077 10.881 31.5037 11.561 31.5037 12.473C31.5037 13.273 31.7597 13.881 32.2717 14.297C32.7997 14.697 33.5917 15.017 34.6477 15.257L36.0157 15.569C37.6637 15.937 38.8557 16.497 39.5917 17.249C40.3277 18.001 40.6957 19.001 40.6957 20.249C40.6957 21.017 40.5597 21.713 40.2877 22.337C40.0317 22.961 39.6557 23.489 39.1597 23.921C38.6637 24.353 38.0557 24.689 37.3357 24.929C36.6317 25.169 35.8317 25.289 34.9357 25.289ZM46.7691 25.001C46.0971 25.001 45.5851 24.817 45.2331 24.449C44.8971 24.065 44.7291 23.569 44.7291 22.961V14.297H42.6891V12.617H43.8411C44.2571 12.617 44.5371 12.537 44.6811 12.377C44.8411 12.201 44.9211 11.905 44.9211 11.489V9.18498H46.6491V12.617H49.3611V14.297H46.6491V23.321H49.1691V25.001H46.7691ZM61.4951 25.001C60.7751 25.001 60.2551 24.809 59.9351 24.425C59.6311 24.041 59.4391 23.561 59.3591 22.985H59.2391C58.9671 23.753 58.5191 24.329 57.8951 24.713C57.2711 25.097 56.5271 25.289 55.6631 25.289C54.3511 25.289 53.3271 24.953 52.5911 24.281C51.8711 23.609 51.5111 22.697 51.5111 21.545C51.5111 20.377 51.9351 19.481 52.7831 18.857C53.6471 18.233 54.9831 17.921 56.7911 17.921H59.2391V16.697C59.2391 15.817 58.9991 15.145 58.5191 14.681C58.0391 14.217 57.3031 13.985 56.3111 13.985C55.5591 13.985 54.9271 14.153 54.4151 14.489C53.9191 14.825 53.5031 15.273 53.1671 15.833L52.0151 14.753C52.3511 14.081 52.8871 13.513 53.6231 13.049C54.3591 12.569 55.2871 12.329 56.4071 12.329C57.9111 12.329 59.0791 12.697 59.9111 13.433C60.7431 14.169 61.1591 15.193 61.1591 16.505V23.321H62.5751V25.001H61.4951ZM55.9751 23.657C56.4551 23.657 56.8951 23.601 57.2951 23.489C57.6951 23.377 58.0391 23.217 58.3271 23.009C58.6151 22.801 58.8391 22.561 58.9991 22.289C59.1591 22.017 59.2391 21.721 59.2391 21.401V19.361H56.6951C55.5911 19.361 54.7831 19.521 54.2711 19.841C53.7751 20.161 53.5271 20.625 53.5271 21.233V21.737C53.5271 22.345 53.7431 22.817 54.1751 23.153C54.6231 23.489 55.2231 23.657 55.9751 23.657ZM73.2834 22.985H73.1874C72.4354 24.521 71.2274 25.289 69.5634 25.289C68.7954 25.289 68.0994 25.137 67.4754 24.833C66.8514 24.529 66.3154 24.097 65.8674 23.537C65.4354 22.977 65.0994 22.297 64.8594 21.497C64.6354 20.697 64.5234 19.801 64.5234 18.809C64.5234 17.817 64.6354 16.921 64.8594 16.121C65.0994 15.321 65.4354 14.641 65.8674 14.081C66.3154 13.521 66.8514 13.089 67.4754 12.785C68.0994 12.481 68.7954 12.329 69.5634 12.329C70.4274 12.329 71.1634 12.521 71.7714 12.905C72.3954 13.273 72.8674 13.849 73.1874 14.633H73.2834V7.24098H75.2034V25.001H73.2834V22.985ZM70.0914 23.561C70.5234 23.561 70.9314 23.505 71.3154 23.393C71.7154 23.281 72.0594 23.121 72.3474 22.913C72.6354 22.689 72.8594 22.425 73.0194 22.121C73.1954 21.801 73.2834 21.441 73.2834 21.041V16.433C73.2834 16.097 73.1954 15.785 73.0194 15.497C72.8594 15.193 72.6354 14.937 72.3474 14.729C72.0594 14.521 71.7154 14.361 71.3154 14.249C70.9314 14.121 70.5234 14.057 70.0914 14.057C69.0034 14.057 68.1474 14.401 67.5234 15.089C66.8994 15.761 66.5874 16.649 66.5874 17.753V19.865C66.5874 20.969 66.8994 21.865 67.5234 22.553C68.1474 23.225 69.0034 23.561 70.0914 23.561ZM83.9893 25.289C83.1413 25.289 82.3733 25.137 81.6853 24.833C81.0133 24.529 80.4293 24.097 79.9333 23.537C79.4533 22.961 79.0773 22.281 78.8053 21.497C78.5493 20.697 78.4213 19.801 78.4213 18.809C78.4213 17.833 78.5493 16.945 78.8053 16.145C79.0773 15.345 79.4533 14.665 79.9333 14.105C80.4293 13.529 81.0133 13.089 81.6853 12.785C82.3733 12.481 83.1413 12.329 83.9893 12.329C84.8213 12.329 85.5653 12.481 86.2213 12.785C86.8773 13.089 87.4373 13.513 87.9013 14.057C88.3653 14.585 88.7173 15.217 88.9573 15.953C89.2133 16.689 89.3413 17.497 89.3413 18.377V19.289H80.4373V19.865C80.4373 20.393 80.5173 20.889 80.6773 21.353C80.8533 21.801 81.0933 22.193 81.3973 22.529C81.7173 22.865 82.1013 23.129 82.5493 23.321C83.0133 23.513 83.5333 23.609 84.1093 23.609C84.8933 23.609 85.5733 23.425 86.1493 23.057C86.7413 22.689 87.1973 22.161 87.5173 21.473L88.8853 22.457C88.4853 23.305 87.8613 23.993 87.0133 24.521C86.1653 25.033 85.1573 25.289 83.9893 25.289ZM83.9893 13.937C83.4613 13.937 82.9813 14.033 82.5493 14.225C82.1173 14.401 81.7413 14.657 81.4213 14.993C81.1173 15.329 80.8773 15.729 80.7013 16.193C80.5253 16.641 80.4373 17.137 80.4373 17.681V17.849H87.2773V17.585C87.2773 16.481 86.9733 15.601 86.3653 14.945C85.7733 14.273 84.9813 13.937 83.9893 13.937ZM92.5532 25.001V12.617H94.4732V14.897H94.5932C94.8172 14.305 95.2172 13.777 95.7932 13.313C96.3692 12.849 97.1612 12.617 98.1692 12.617H98.9132V14.537H97.7852C96.7452 14.537 95.9292 14.737 95.3372 15.137C94.7612 15.521 94.4732 16.009 94.4732 16.601V25.001H92.5532Z" fill="white"/>
</svg>
